<?xml version="1.0" encoding="UTF-8"?>
<svg width="457px" height="267px" viewBox="0 0 457 267" version="1.1" xmlns="http://www.w3.org/2000/svg" xmlns:xlink="http://www.w3.org/1999/xlink">
    <!-- Generator: Sketch 61.2 (89653) - https://sketch.com -->
    <title>icon-vk</title>
    <desc>Created with Sketch.</desc>
    <g id="Seventh-Gen" stroke="none" stroke-width="1" fill="none" fill-rule="evenodd">
        <path d="M445.86442,18.0247 C449.0206,7.64337 445.86442,0 430.74863,0 L380.8385,0 C368.13754,0 362.28144,6.59763 359.10618,13.87977 C359.10618,13.87977 333.72332,74.64662 297.76894,114.13745 C286.13267,125.54551 280.84697,129.19608 274.49652,129.19608 C271.32133,129.19608 266.72008,125.56452 266.72008,115.16418 L266.72008,18.0247 C266.72008,5.55192 263.03139,0 252.45994,0 L174.01071,0 C166.08214,0 161.30974,5.78005 161.30974,11.27491 C161.30974,23.08227 179.2964,25.82018 181.14068,59.05562 L181.14068,131.26855 C181.14068,147.1067 178.23158,149.97773 171.8812,149.97773 C154.95923,149.97773 113.79522,88.92567 89.36303,19.07042 C84.60966,5.47584 79.79922,0 67.04128,0 L17.11213,0 C2.85199,0 0,6.59763 0,13.87977 C0,26.84691 16.92197,91.26431 78.81059,176.4634 C120.06968,234.64441 178.15565,266.18764 231.0699,266.18764 C262.80333,266.18764 266.72008,259.19073 266.72008,247.11721 L266.72008,203.13921 C266.72008,189.12633 269.72413,186.33135 279.78228,186.33135 C287.19749,186.33135 299.87944,189.98192 329.50226,218.02671 C363.34613,251.28114 368.91712,266.18764 387.96848,266.18764 L437.87874,266.18764 C452.13874,266.18764 459.28787,259.19073 455.1809,245.36798 C450.6557,231.58325 434.49437,211.60015 413.06622,187.89046 C401.43001,174.39093 383.97579,159.84567 378.68991,152.56352 C371.27483,143.22795 373.38533,139.06402 378.68991,130.75517 C378.68991,130.75517 439.49482,46.60183 445.8454,18.02469 L445.86442,18.0247 Z" id="icon-vk" fill="#B1B5B6" fill-rule="nonzero"></path>
    </g>
</svg>